<?xml version="1.0" encoding="UTF-8"?>
<svg width="40px" height="40px" viewBox="0 0 40 40" version="1.1" xmlns="http://www.w3.org/2000/svg" xmlns:xlink="http://www.w3.org/1999/xlink">
    <!-- Generator: Sketch 49 (51002) - http://www.bohemiancoding.com/sketch -->
    <title>ico_printer</title>
    <desc>Created with Sketch.</desc>
    <defs></defs>
    <g id="ico_printer" stroke="none" stroke-width="1" fill="none" fill-rule="evenodd">
        <g id="printer" fill="#A0A9B2" fill-rule="nonzero">
            <path d="M32.1532091,8.19047619 L31.126294,8.19047619 L31.126294,5.9047619 C31.126294,2.65010352 28.4761905,0 25.2215321,0 L12.8240166,0 C9.56935818,0 6.91925466,2.65010352 6.91925466,5.9047619 L6.91925466,8.19047619 L5.98343685,8.19047619 C2.72877847,8.19047619 0.0786749482,10.8405797 0.0786749482,14.0952381 L0.0786749482,23.6190476 C0.0786749482,26.873706 2.72877847,29.5238095 5.98343685,29.5238095 L6.91097308,29.5238095 L6.91097308,37.010352 C6.91097308,38.6335404 8.23602484,39.9585921 9.85921325,39.9585921 L28.1697723,39.9585921 C29.7929607,39.9585921 31.1180124,38.6335404 31.1180124,37.010352 L31.1180124,29.5238095 L32.1532091,29.5238095 C35.4078675,29.5238095 38.057971,26.873706 38.057971,23.6190476 L38.057971,14.0952381 C38.057971,10.8405797 35.4078675,8.19047619 32.1532091,8.19047619 Z M9.14699793,5.9047619 C9.14699793,3.88405797 10.7950311,2.23602484 12.815735,2.23602484 L25.2049689,2.23602484 C27.2256729,2.23602484 28.873706,3.88405797 28.873706,5.9047619 L28.873706,8.19047619 L9.14699793,8.19047619 L9.14699793,5.9047619 Z M28.8819876,37.0269151 C28.8819876,37.4161491 28.5590062,37.7391304 28.1697723,37.7391304 L9.85921325,37.7391304 C9.4699793,37.7391304 9.14699793,37.4161491 9.14699793,37.0269151 L9.14699793,24.679089 L28.8819876,24.679089 L28.8819876,37.0269151 Z M35.8219462,23.6273292 C35.8219462,25.6480331 34.173913,27.2960663 32.1532091,27.2960663 L31.126294,27.2960663 L31.126294,24.679089 L32.6004141,24.679089 C33.2215321,24.679089 33.7184265,24.1821946 33.7184265,23.5610766 C33.7184265,22.9399586 33.2215321,22.4430642 32.6004141,22.4430642 L5.27122153,22.4430642 C4.65010352,22.4430642 4.15320911,22.9399586 4.15320911,23.5610766 C4.15320911,24.1821946 4.65010352,24.679089 5.27122153,24.679089 L6.91925466,24.679089 L6.91925466,27.2960663 L5.98343685,27.2960663 C3.96273292,27.2960663 2.31469979,25.6480331 2.31469979,23.6273292 L2.31469979,14.1035197 C2.31469979,12.0828157 3.96273292,10.4347826 5.98343685,10.4347826 L32.1532091,10.4347826 C34.173913,10.4347826 35.8219462,12.0828157 35.8219462,14.1035197 L35.8219462,23.6273292 Z" id="Shape"></path>
            <path d="M11.8550725,30.1780538 L26.0910973,30.1780538 C26.7122153,30.1780538 27.2091097,29.6811594 27.2091097,29.0600414 C27.2091097,28.4389234 26.7122153,27.942029 26.0910973,27.942029 L11.8550725,27.942029 C11.2339545,27.942029 10.73706,28.4389234 10.73706,29.0600414 C10.73706,29.6811594 11.242236,30.1780538 11.8550725,30.1780538 Z" id="Shape"></path>
            <path d="M26.1821946,32.5134576 L11.9378882,32.5134576 C11.3167702,32.5134576 10.8198758,33.010352 10.8198758,33.63147 C10.8198758,34.252588 11.3167702,34.7494824 11.9378882,34.7494824 L26.173913,34.7494824 C26.7950311,34.7494824 27.2919255,34.252588 27.2919255,33.63147 C27.2919255,33.010352 26.7950311,32.5134576 26.1821946,32.5134576 Z" id="Shape"></path>
            <path d="M32.1283644,12.5797101 L29.8592133,12.5797101 C29.2380952,12.5797101 28.7412008,13.0766046 28.7412008,13.6977226 C28.7412008,14.3188406 29.2380952,14.815735 29.8592133,14.815735 L32.1283644,14.815735 C32.7494824,14.815735 33.2463768,14.3188406 33.2463768,13.6977226 C33.2463768,13.0766046 32.7494824,12.5797101 32.1283644,12.5797101 Z" id="Shape"></path>
        </g>
    </g>
</svg>