<?xml version="1.0" encoding="UTF-8"?>
<svg width="24px" height="22px" viewBox="0 0 24 22" version="1.1" xmlns="http://www.w3.org/2000/svg" xmlns:xlink="http://www.w3.org/1999/xlink">
    <!-- Generator: Sketch 49 (51002) - http://www.bohemiancoding.com/sketch -->
    <title>ico_spa-lotus</title>
    <desc>Created with Sketch.</desc>
    <defs></defs>
    <g id="Hotel-layout" stroke="none" stroke-width="1" fill="none" fill-rule="evenodd" stroke-linecap="round" stroke-linejoin="round">
        <g id="Detail_1" transform="translate(-535.000000, -1440.000000)" stroke="#768090">
            <g id="hotel-detail" transform="translate(135.000000, 251.000000)">
                <g id="facilities" transform="translate(0.000000, 1087.000000)">
                    <g id="1" transform="translate(400.000000, 101.000000)">
                        <g id="Group">
                            <g id="ico_spa-lotus">
                                <path d="M15.052,8.391 C15.052,12.269 11.999,15.413 11.999,15.413 C11.999,15.413 8.947,12.269 8.947,8.391 C9.08841198,5.96410367 10.025766,3.65147167 11.614,1.811 C11.7089848,1.69600431 11.8503486,1.62941757 11.9995,1.62941757 C12.1486514,1.62941757 12.2900152,1.69600431 12.385,1.811 C13.9734275,3.65135344 14.9108092,5.96405383 15.052,8.391 Z" id="Shape"></path>
                                <path d="M14.307,4.87 C15.180626,4.16392135 16.1590568,3.5984558 17.207,3.194 C17.340953,3.1424666 17.4905922,3.15098128 17.6178348,3.21737707 C17.7450775,3.28377286 17.8376526,3.40164668 17.872,3.541 C18.187,4.814 18.81,8.151 17.558,10.86 C15.979,14.285 12,15.413 12,15.413" id="Shape"></path>
                                <path d="M18.3,7.354 C19.4139276,7.19464454 20.5468934,7.22677341 21.65,7.449 C21.9171391,7.50243306 22.0923354,7.75989172 22.044,8.028 C21.82,9.267 21.02,12.644 18.765,14.395 C15.965,16.564 11.995,15.413 11.995,15.413" id="Shape"></path>
                                <path d="M9.788,4.949 C8.88962183,4.20542229 7.876429,3.61270449 6.788,3.194 C6.65404701,3.1424666 6.50440783,3.15098128 6.37716518,3.21737707 C6.24992253,3.28377286 6.15734744,3.40164668 6.123,3.541 C5.808,4.815 5.185,8.151 6.437,10.86 C8.02,14.285 12,15.413 12,15.413" id="Shape"></path>
                                <path d="M5.724,7.358 C4.60084273,7.19395254 3.45783215,7.22439674 2.345,7.448 C2.0773996,7.50142604 1.90205785,7.75954333 1.951,8.028 C2.176,9.267 2.975,12.644 5.23,14.4 C8.026,16.564 12,15.413 12,15.413 C12,15.413 12,15.387 11.99,15.336" id="Shape"></path>
                                <path d="M19.6,13.621 C21.99,14.531 23.5,15.871 23.5,17.371 C23.5,18.687 22.33,19.881 20.424,20.771 C20.301684,20.8283452 20.1613687,20.8337558 20.035,20.786 L16.135,19.301 C15.9458722,19.2293423 15.7322013,19.2786788 15.5936356,19.4260005 C15.45507,19.5733223 15.4189023,19.789612 15.502,19.974 L16.144,21.395 C16.2083699,21.5377947 16.2021048,21.7025022 16.1270733,21.8399943 C16.0520419,21.9774864 15.9169159,22.0718727 15.762,22.095 C14.5164537,22.2790278 13.2590678,22.3712762 12,22.371 C5.65,22.371 0.5,20.131 0.5,17.371 C0.5,15.871 2.01,14.531 4.4,13.621" id="Shape"></path>
                            </g>
                        </g>
                    </g>
                </g>
            </g>
        </g>
    </g>
</svg>