<?xml version="1.0" encoding="UTF-8"?>
<svg width="24px" height="24px" viewBox="0 0 24 24" version="1.1" xmlns="http://www.w3.org/2000/svg" xmlns:xlink="http://www.w3.org/1999/xlink">
    <!-- Generator: Sketch 49 (51002) - http://www.bohemiancoding.com/sketch -->
    <title>ico_pool</title>
    <desc>Created with Sketch.</desc>
    <defs></defs>
    <g id="Hotel-layout" stroke="none" stroke-width="1" fill="none" fill-rule="evenodd">
        <g id="Detail_1" transform="translate(-335.000000, -1503.000000)" fill="#768090" fill-rule="nonzero">
            <g id="hotel-detail" transform="translate(135.000000, 251.000000)">
                <g id="facilities" transform="translate(0.000000, 1087.000000)">
                    <g id="1" transform="translate(200.000000, 165.000000)">
                        <g id="ico_pool">
                            <path d="M8.49838596,0 C7.46521637,0 6.49356725,0.402339181 5.76215205,1.13305263 C5.37609357,1.51911111 5.08135673,1.97192982 4.88603509,2.47887719 C4.79850292,2.70610526 4.9117193,2.96121637 5.13890058,3.04870175 C5.36608187,3.13623392 5.62123977,3.02301754 5.70872515,2.79583626 C5.85950877,2.40449123 6.08720468,2.05483041 6.38540351,1.7565848 C6.95017544,1.19237427 7.7005848,0.881637427 8.49838596,0.881637427 C10.1460585,0.881637427 11.4865965,2.22184795 11.4865965,3.86928655 C11.4865965,4.11274854 11.6839766,4.31012865 11.9274386,4.31012865 C12.1709474,4.31012865 12.3682807,4.11274854 12.3682807,3.86928655 C12.3682807,1.73576608 10.6322339,0 8.49838596,0 Z" id="Shape"></path>
                            <path d="M22.9207018,23.0715789 C21.9319766,23.0715789 21.462924,22.7536374 20.9198129,22.3855439 C20.3404444,21.9927953 19.6837427,21.5476023 18.4242807,21.5476023 C17.1648187,21.5476023 16.5080702,21.9927953 15.9287485,22.3855439 C15.6594152,22.5680936 15.4050526,22.740538 15.0967018,22.8659181 C14.8711579,22.9576608 14.7626667,23.2148304 14.8544094,23.4403275 C14.9461053,23.6657778 15.2033684,23.7743626 15.4287719,23.6826199 C15.8229708,23.5222924 16.1282339,23.3153684 16.4233918,23.1153216 C16.9665029,22.7471813 17.4355556,22.4292865 18.4242807,22.4292865 C19.4130058,22.4292865 19.8820585,22.7472281 20.4251696,23.1153216 C21.0044912,23.5080234 21.661193,23.9532164 22.9207018,23.9532164 C23.1642105,23.9532164 23.3615439,23.7558363 23.3615439,23.5123743 C23.3614971,23.2689591 23.1641637,23.0715789 22.9207018,23.0715789 Z" id="Shape"></path>
                            <path d="M13.9278129,23.0715789 C12.9391813,23.0715789 12.470269,22.7536374 11.9272982,22.3855439 C11.3479298,21.9927953 10.6912749,21.5476023 9.432,21.5476023 C8.17277193,21.5476023 7.51611696,21.9927953 6.93679532,22.3855439 C6.39382456,22.7536842 5.92491228,23.0715789 4.93632749,23.0715789 C3.94816374,23.0715789 3.47948538,22.7536374 2.93674854,22.3855906 C2.35761404,21.9928421 1.70119298,21.5476491 0.442292398,21.5476491 C0.198830409,21.5476491 0.0014502924,21.7450292 0.0014502924,21.9884912 C0.0014502924,22.2319532 0.198830409,22.4293333 0.442292398,22.4293333 C1.43045614,22.4293333 1.8991345,22.7472749 2.44196491,23.1153216 C3.02109942,23.508117 3.67752047,23.9533099 4.93642105,23.9533099 C6.19564912,23.9533099 6.85230409,23.508117 7.43162573,23.1153684 C7.97459649,22.7472281 8.44350877,22.4293333 9.43209357,22.4293333 C10.4207251,22.4293333 10.8896374,22.7472749 11.4327018,23.1153684 C12.0120702,23.508117 12.6687251,23.9533099 13.928,23.9533099 C14.1715088,23.9533099 14.3688421,23.7559298 14.3688421,23.5124678 C14.3687485,23.2690058 14.1712749,23.0715789 13.9278129,23.0715789 Z" id="Shape"></path>
                            <path d="M22.9207018,16.6300351 C21.9319766,16.6300819 21.462924,16.3120936 20.9198129,15.944 C20.3404444,15.5512515 19.6837427,15.1060585 18.4242807,15.1060585 C18.126269,15.1060585 17.8552047,15.1300585 17.5956023,15.1792749 C17.3564444,15.224655 17.199345,15.4553918 17.2447251,15.6945497 C17.2901053,15.9337544 17.5207018,16.0907135 17.7600468,16.0454269 C17.9648187,16.0065029 18.1821287,15.9876491 18.4243275,15.9876491 C19.4130526,15.9876491 19.8821053,16.3055906 20.4252164,16.6736842 C21.0045848,17.0664327 21.6612865,17.5116257 22.9207485,17.5116257 C23.1642573,17.5116257 23.3615906,17.3142456 23.3615906,17.0707836 C23.3615906,16.8273216 23.1642105,16.6300351 22.9207018,16.6300351 Z" id="Shape"></path>
                            <path d="M3.76832749,16.4243743 C3.46016374,16.2989474 3.20589474,16.1265497 2.93674854,15.944 C2.35761404,15.5512047 1.70119298,15.1060117 0.442292398,15.1060117 C0.198830409,15.1060117 0.0014502924,15.3033918 0.0014502924,15.5468538 C0.0014502924,15.7903158 0.198783626,15.9877427 0.44219883,15.9877427 C1.43036257,15.9877427 1.89904094,16.3056842 2.44177778,16.673731 C2.73684211,16.8738246 3.04187135,17.0807018 3.43592982,17.2410292 C3.49033918,17.2632047 3.54661988,17.2736374 3.60196491,17.2736374 C3.77595322,17.2736374 3.94081871,17.1699649 4.01038596,16.9988772 C4.10226901,16.7733333 3.99382456,16.516117 3.76832749,16.4243743 Z" id="Shape"></path>
                            <path d="M17.6883743,1.75663158 C18.2530526,1.19242105 19.0033684,0.881684211 19.8013099,0.881684211 C21.4489825,0.881684211 22.7895205,2.22189474 22.7895205,3.86933333 C22.7895205,4.11279532 22.9868538,4.31017544 23.2303626,4.31017544 C23.4738713,4.31017544 23.6712047,4.11279532 23.6712047,3.86933333 C23.6711111,1.73576608 21.9351111,0 19.8012632,0 C18.7680936,0 17.7963977,0.402339181 17.0650292,1.13305263 C16.3339415,1.86404678 15.9314152,2.83574269 15.9314152,3.86928655 L15.9314152,7.32430409 L5.51022222,7.32430409 L5.51022222,4.1631345 C5.51022222,3.91967251 5.31284211,3.7222924 5.06938012,3.7222924 C4.82591813,3.7222924 4.62853801,3.91967251 4.62853801,4.1631345 L4.62853801,19.838924 C3.8448655,19.779462 3.41960234,19.4923041 2.93670175,19.1648187 C2.35752047,18.7720234 1.7011462,18.3268304 0.44219883,18.3268304 C0.198736842,18.3268304 0.00135672515,18.5242105 0.00135672515,18.7676725 C0.00135672515,19.0111345 0.198736842,19.2085146 0.44219883,19.2085146 C1.43036257,19.2085146 1.89904094,19.5264561 2.44177778,19.8945029 C3.02095906,20.2872982 3.67733333,20.7324912 4.93623392,20.7324912 C6.19546199,20.7324912 6.85211696,20.2872982 7.4314386,19.8945497 C7.97440936,19.5264094 8.44336842,19.2085146 9.43190643,19.2085146 C10.420538,19.2085146 10.8894503,19.5264561 11.4325146,19.8945497 C12.011883,20.2872982 12.668538,20.7324912 13.9278129,20.7324912 C15.1872749,20.7324912 15.8440234,20.2872982 16.4233918,19.8945497 C16.9665029,19.5264094 17.4355088,19.2085146 18.4242807,19.2085146 C19.4130526,19.2085146 19.8820585,19.5264561 20.4251696,19.8945497 C21.004538,20.2872982 21.6612398,20.7324912 22.9207485,20.7324912 C23.1642573,20.7324912 23.3615906,20.5351111 23.3615906,20.2916491 C23.3615906,20.0481871 23.1642573,19.850807 22.9207485,19.850807 C21.9320234,19.850807 21.4629708,19.5328655 20.9198596,19.1647719 C20.3404912,18.7720234 19.6837895,18.3268304 18.4243275,18.3268304 C17.7355789,18.3268304 17.2272749,18.4600702 16.8131462,18.6450058 L16.8131462,3.86928655 C16.8130994,3.07125146 17.1239766,2.32093567 17.6883743,1.75663158 Z M15.9313216,19.1629474 C15.9304795,19.1635556 15.9295439,19.1641637 15.928655,19.1647719 C15.3855439,19.5329123 14.9164912,19.850807 13.9277661,19.850807 C12.9391345,19.850807 12.4702222,19.5328655 11.9272515,19.1647719 C11.347883,18.7720234 10.6912281,18.3268304 9.43195322,18.3268304 C8.17272515,18.3268304 7.51607018,18.7720234 6.93674854,19.1647719 C6.51129825,19.453193 6.1302924,19.7100351 5.51017544,19.8080936 L5.51017544,17.2626433 L15.9313216,17.2626433 L15.9313216,19.1629474 Z M15.9314152,11.8526316 L15.1037193,11.8526316 C14.8602105,11.8526316 14.6628772,12.0500117 14.6628772,12.2934737 C14.6628772,12.5369357 14.8602105,12.7343158 15.1037193,12.7343158 L15.9314152,12.7343158 L15.9314152,16.3809591 L5.51017544,16.3809591 L5.51022222,12.7343158 L13.6342456,12.7343158 C13.8777544,12.7343158 14.0750877,12.5369357 14.0750877,12.2934737 C14.0750877,12.0500117 13.8777544,11.8526316 13.6342456,11.8526316 L5.51017544,11.8526316 L5.51017544,8.2059883 L15.9314152,8.2059883 L15.9314152,11.8526316 Z" id="Shape"></path>
                        </g>
                    </g>
                </g>
            </g>
        </g>
    </g>
</svg>