<?xml version="1.0" encoding="UTF-8"?>
<svg width="24px" height="23px" viewBox="0 0 24 23" version="1.1" xmlns="http://www.w3.org/2000/svg" xmlns:xlink="http://www.w3.org/1999/xlink">
    <!-- Generator: Sketch 49 (51002) - http://www.bohemiancoding.com/sketch -->
    <title>ico_ac-heat</title>
    <desc>Created with Sketch.</desc>
    <defs></defs>
    <g id="Hotel-layout" stroke="none" stroke-width="1" fill="none" fill-rule="evenodd" stroke-linecap="round" stroke-linejoin="round">
        <g id="Detail_1" transform="translate(-735.000000, -1502.000000)" stroke="#768090">
            <g id="hotel-detail" transform="translate(135.000000, 251.000000)">
                <g id="facilities" transform="translate(0.000000, 1087.000000)">
                    <g id="1" transform="translate(600.000000, 165.000000)">
                        <g id="Group">
                            <g id="ico_ac-heat">
                                <path d="M1.5,12 L1.013,12.013 C0.878116388,12.0164494 0.747564142,11.9652383 0.651,11.871 C0.554462864,11.7769026 0.500013179,11.64781 0.5,11.513 L0.5,2 C0.5,0.8954305 1.3954305,2.22044605e-16 2.5,0 L21.5,0 C22.6045695,0 23.5,0.8954305 23.5,2 L23.5,11.5 C23.5,11.7761424 23.2761424,12 23,12 L22.5,12" id="Shape"></path>
                                <path d="M2.862,10.724 C2.7843329,10.5690067 2.79249587,10.3848425 2.88357142,10.2373286 C2.97464697,10.0898148 3.13563594,10.0000058 3.309,10 L20.691,10 C20.8643641,10.0000058 21.025353,10.0898148 21.1164286,10.2373286 C21.2075041,10.3848425 21.2156671,10.5690067 21.138,10.724 L19.638,13.724 C19.5532287,13.8931705 19.3802216,13.9999937 19.191,14 L4.809,14 C4.6197784,13.9999937 4.44677128,13.8931705 4.362,13.724 L2.862,10.724 Z" id="Shape"></path>
                                <path d="M3.5,2 L20.5,2" id="Shape"></path>
                                <path d="M3.5,4 L20.5,4" id="Shape"></path>
                                <path d="M16.5,5.75 C16.6380712,5.75 16.75,5.86192881 16.75,6 C16.75,6.13807119 16.6380712,6.25 16.5,6.25 C16.3619288,6.25 16.25,6.13807119 16.25,6 C16.2497329,5.93361434 16.2759863,5.86987053 16.3229284,5.8229284 C16.3698705,5.77598627 16.4336143,5.74973285 16.5,5.75" id="Shape"></path>
                                <path d="M19.5,5.75 C19.6380712,5.75 19.75,5.86192881 19.75,6 C19.75,6.13807119 19.6380712,6.25 19.5,6.25 C19.3619288,6.25 19.25,6.13807119 19.25,6 C19.2497329,5.93361434 19.2759863,5.86987053 19.3229284,5.8229284 C19.3698705,5.77598627 19.4336143,5.74973285 19.5,5.75" id="Shape"></path>
                                <path d="M0.5,8 L23.5,8" id="Shape"></path>
                                <path d="M5.5,16 C7.243,17.742 3.794,20.294 5.5,22" id="Shape"></path>
                                <path d="M11.5,16 C13.243,17.742 9.794,20.294 11.5,22" id="Shape"></path>
                                <path d="M18,16 C19.743,17.742 16.294,20.294 18,22" id="Shape"></path>
                            </g>
                        </g>
                    </g>
                </g>
            </g>
        </g>
    </g>
</svg>