<?xml version="1.0" encoding="UTF-8"?>
<svg width="26px" height="25px" viewBox="0 0 26 25" version="1.1" xmlns="http://www.w3.org/2000/svg" xmlns:xlink="http://www.w3.org/1999/xlink">
    <!-- Generator: Sketch 49 (51002) - http://www.bohemiancoding.com/sketch -->
    <title>ico_child</title>
    <desc>Created with Sketch.</desc>
    <defs></defs>
    <g id="Hotel-layout" stroke="none" stroke-width="1" fill="none" fill-rule="evenodd" stroke-linecap="round" stroke-linejoin="round">
        <g id="Detail_3" transform="translate(-622.000000, -2233.000000)" stroke="#768090">
            <g id="hotel-detail" transform="translate(0.000000, 211.000000)">
                <g id="rooms" transform="translate(135.000000, 1234.000000)">
                    <g id="1" transform="translate(0.000000, 701.000000)">
                        <g id="Group-3" transform="translate(300.000000, 79.000000)">
                            <g id="gruop" transform="translate(180.000000, 0.000000)">
                                <g id="ico_child" transform="translate(8.000000, 8.000000)">
                                    <g id="baby-boy">
                                        <path d="M8.4,12.5333333 C8.6209139,12.5333333 8.8,12.7124194 8.8,12.9333333" id="Shape"></path>
                                        <path d="M8,12.9333333 C8,12.7124194 8.1790861,12.5333333 8.4,12.5333333" id="Shape"></path>
                                        <path d="M8.4,13.3333333 C8.1790861,13.3333333 8,13.1542472 8,12.9333333" id="Shape"></path>
                                        <path d="M8.8,12.9333333 C8.8,13.1542472 8.6209139,13.3333333 8.4,13.3333333" id="Shape"></path>
                                        <path d="M15.6,12.5333333 C15.8209139,12.5333333 16,12.7124194 16,12.9333333" id="Shape"></path>
                                        <path d="M15.2,12.9333333 C15.2,12.7124194 15.3790861,12.5333333 15.6,12.5333333" id="Shape"></path>
                                        <path d="M15.6,13.3333333 C15.3790861,13.3333333 15.2,13.1542472 15.2,12.9333333" id="Shape"></path>
                                        <path d="M16,12.9333333 C16,13.1542472 15.8209139,13.3333333 15.6,13.3333333" id="Shape"></path>
                                        <path d="M21.2,11.3333333 L21.1850667,11.3333333 C19.9558975,7.28945159 16.2265632,4.52520552 12,4.52520552 C7.7734368,4.52520552 4.04410253,7.28945159 2.81493333,11.3333333 L2.8,11.3333333 C1.2536027,11.3333333 1.18423789e-16,12.586936 0,14.1333333 C-1.18423789e-16,15.6797306 1.2536027,16.9333333 2.8,16.9333333 L2.81493333,16.9333333 C4.04410253,20.9772151 7.7734368,23.7414611 12,23.7414611 C16.2265632,23.7414611 19.9558975,20.9772151 21.1850667,16.9333333 L21.2,16.9333333 C22.7463973,16.9333333 24,15.6797306 24,14.1333333 C24,12.586936 22.7463973,11.3333333 21.2,11.3333333 Z" id="Shape"></path>
                                        <path d="M15.5776,18.1333333 C14.6670038,19.1513412 13.3658424,19.7332117 12,19.7332117 C10.6341576,19.7332117 9.33299623,19.1513412 8.4224,18.1333333" id="Shape"></path>
                                        <path d="M14.6538667,0.533333333 C16.4374519,1.71739481 17.221295,3.93947192 16.5753836,5.98054428 C15.9294721,8.02161665 14.0099719,9.38820208 11.8699112,9.33059866 C9.72985052,9.27299524 7.88664446,7.80513008 7.35146667,5.73226667" id="Shape"></path>
                                    </g>
                                </g>
                            </g>
                        </g>
                    </g>
                </g>
            </g>
        </g>
    </g>
</svg>