<?xml version="1.0" encoding="UTF-8"?>
<svg width="16px" height="16px" viewBox="0 0 16 16" version="1.1" xmlns="http://www.w3.org/2000/svg" xmlns:xlink="http://www.w3.org/1999/xlink">
    <!-- Generator: Sketch 49 (51002) - http://www.bohemiancoding.com/sketch -->
    <title>ico_smail_active</title>
    <desc>Created with Sketch.</desc>
    <defs></defs>
    <g id="Hotel-layout" stroke="none" stroke-width="1" fill="none" fill-rule="evenodd">
        <g id="Detail_1" transform="translate(-336.000000, -4226.000000)" fill="#5191FA" fill-rule="nonzero">
            <g id="hotel-detail" transform="translate(135.000000, 251.000000)">
                <g id="review" transform="translate(0.000000, 2851.000000)">
                    <g id="review_2" transform="translate(1.000000, 788.000000)">
                        <g id="Group-3" transform="translate(111.000000, 160.000000)">
                            <g id="Group-2" transform="translate(0.000000, 172.000000)">
                                <g id="ico_smail_active" transform="translate(89.000000, 4.000000)">
                                    <path d="M13.5392897,13.5389907 C16.6326729,10.4459065 16.6323738,5.41308411 13.5395888,2.3204486 C10.4460561,-0.773383178 5.41293458,-0.773383178 2.32,2.31970093 C-0.77353271,5.41278505 -0.773233645,10.4460561 2.32029907,13.5397383 C5.41293458,16.6325234 10.4460561,16.6325234 13.5392897,13.5389907 Z M3.18534579,3.18504673 C5.80127103,0.569271028 10.0577196,0.568971963 12.674243,3.18534579 C15.2901682,5.80127103 15.2898692,10.0581682 12.6739439,12.6739439 C10.0580187,15.2898692 5.80142056,15.2901682 3.18534579,12.674243 C0.56882243,10.0580187 0.569121495,5.80097196 3.18534579,3.18504673 Z M8.80104673,6.23117757 C8.80104673,5.51371963 9.3846729,4.93009346 10.1024299,4.93009346 C10.8197383,4.93009346 11.4033645,5.51357009 11.4033645,6.23117757 C11.4033645,6.43768224 11.2360374,6.60500935 11.0295327,6.60500935 C10.823028,6.60500935 10.6557009,6.43768224 10.6557009,6.23117757 C10.6557009,5.92598131 10.4074766,5.67775701 10.1024299,5.67775701 C9.79708411,5.67775701 9.54871028,5.92598131 9.54871028,6.23117757 C9.54871028,6.43768224 9.38138318,6.60500935 9.1748785,6.60500935 C8.96837383,6.60500935 8.80104673,6.43753271 8.80104673,6.23117757 Z M4.6555514,6.22714019 C4.6555514,5.50983178 5.2393271,4.92605607 5.95693458,4.92605607 C6.67424299,4.92605607 7.25801869,5.50968224 7.25801869,6.22714019 C7.25801869,6.43364486 7.09069159,6.60097196 6.88418692,6.60097196 C6.67768224,6.60097196 6.51035514,6.43364486 6.51035514,6.22714019 C6.51035514,5.92194393 6.26213084,5.67371963 5.95693458,5.67371963 C5.65158879,5.67371963 5.40321495,5.92194393 5.40321495,6.22714019 C5.40321495,6.43364486 5.23588785,6.60097196 5.02938318,6.60097196 C4.8228785,6.60097196 4.6555514,6.43349533 4.6555514,6.22714019 Z M4.48971963,9.56919626 C4.39461682,9.34056075 4.50302804,9.07798131 4.73196262,8.9828785 C4.78818692,8.95970093 4.84650467,8.94863551 4.90392523,8.94863551 C5.0797757,8.94863551 5.24665421,9.05256075 5.31828037,9.22527103 C5.73353271,10.2250467 6.76201869,10.870729 7.93854206,10.870729 C9.0884486,10.870729 10.1109533,10.2245981 10.5434019,9.2242243 C10.6417944,8.99678505 10.9058692,8.89196262 11.1331589,8.99050467 C11.3604486,9.08904673 11.4651215,9.35297196 11.366729,9.58026168 C10.7920748,10.9091589 9.44628037,11.7677757 7.93839252,11.7677757 C6.39820561,11.7677757 5.04448598,10.904972 4.48971963,9.56919626 Z" id="Shape"></path>
                                </g>
                            </g>
                        </g>
                    </g>
                </g>
            </g>
        </g>
    </g>
</svg>