<?xml version="1.0" encoding="UTF-8"?>
<svg width="24px" height="24px" viewBox="0 0 24 24" version="1.1" xmlns="http://www.w3.org/2000/svg" xmlns:xlink="http://www.w3.org/1999/xlink">
    <!-- Generator: Sketch 49 (51002) - http://www.bohemiancoding.com/sketch -->
    <title>car-voyage-1</title>
    <desc>Created with Sketch.</desc>
    <defs></defs>
    <g id="Hotel-layout" stroke="none" stroke-width="1" fill="none" fill-rule="evenodd" stroke-linecap="round" stroke-linejoin="round">
        <g id="Room_Only_Detail_1" transform="translate(-135.000000, -1448.000000)" stroke="#768090">
            <g id="room-detail" transform="translate(0.000000, 211.000000)">
                <g id="room-service" transform="translate(135.000000, 1136.000000)">
                    <g id="1" transform="translate(0.000000, 101.000000)">
                        <g id="Group">
                            <g id="car-voyage-1">
                                <path d="M5.4,21 L5.4,22.8 C5.4,23.1313708 5.13137085,23.4 4.8,23.4 L2.4,23.4 C2.06862915,23.4 1.8,23.1313708 1.8,22.8 L1.8,21" id="Shape"></path>
                                <path d="M22.2,21 L22.2,22.8 C22.2,23.1313708 21.9313708,23.4 21.6,23.4 L19.2,23.4 C18.8686292,23.4 18.6,23.1313708 18.6,22.8 L18.6,21" id="Shape"></path>
                                <path d="M22.8,21 C23.1313708,21 23.4,20.7313708 23.4,20.4 L23.4,16.4484 C23.3999663,16.2895771 23.3369627,16.1372466 23.2248,16.0248 L21,13.8 L3,13.8 L0.7752,16.0248 C0.663037256,16.1372466 0.600033743,16.2895771 0.6,16.4484 L0.6,20.4 C0.6,20.7313708 0.86862915,21 1.2,21 L22.8,21 Z" id="Shape"></path>
                                <polyline id="Shape" points="21 13.8 18.6 7.8 5.4 7.8 3 13.8"></polyline>
                                <path d="M0.6,18.6 L6,18.6" id="Shape"></path>
                                <path d="M18,18.6 L23.4,18.6" id="Shape"></path>
                                <rect id="Rectangle-path" x="10.2" y="3" width="8.4" height="4.8" rx="1"></rect>
                                <path d="M12.6,3 L12.6,7.8" id="Shape"></path>
                                <path d="M16.2,3 L16.2,7.8" id="Shape"></path>
                                <rect id="Rectangle-path" x="5.4" y="0.6" width="4.8" height="7.2" rx="1"></rect>
                                <path d="M7.8,3 L7.8,0.6" id="Shape"></path>
                            </g>
                        </g>
                    </g>
                </g>
            </g>
        </g>
    </g>
</svg>