<?xml version="1.0" encoding="UTF-8"?>
<svg width="47px" height="60px" viewBox="0 0 47 60" version="1.1" xmlns="http://www.w3.org/2000/svg" xmlns:xlink="http://www.w3.org/1999/xlink">
    <!-- Generator: Sketch 49 (51002) - http://www.bohemiancoding.com/sketch -->
    <title>mapker_hotel</title>
    <desc>Created with Sketch.</desc>
    <defs>
        <path d="M47,23.3025114 C47,41.9617002 25.7569506,59.2426461 25.7569506,59.2426461 C24.5157017,60.2524513 22.4842983,60.2524513 21.2430494,59.2426461 C21.2430494,59.2426461 0,41.9617002 0,23.3025114 C0.000236360848,10.4328567 10.5214849,0 23.5000591,0 C36.4786332,0 47,10.4328567 47,23.3025114 Z" id="path-1"></path>
    </defs>
    <g id="mapker_hotel" stroke="none" stroke-width="1" fill="none" fill-rule="evenodd">
        <g id="mapker" fill-rule="nonzero">
            <g id="maps-and-flags-2">
                <g id="Shape">
                    <use fill="#FA5636" fill-rule="evenodd" xlink:href="#path-1"></use>
                    <path stroke="#FFFFFF" stroke-width="1" d="M46.5,23.3025114 C46.5,10.7099886 36.2034719,0.5 23.5000591,0.5 C10.7967038,0.5 0.500231272,10.7099335 0.5,23.3025114 C0.5,31.3304549 4.43793477,39.7223405 11.012284,47.9578335 C13.3210006,50.8498946 15.7956654,53.5151015 18.2700666,55.8902335 C19.1357421,56.7211794 19.9392366,57.456246 20.6597758,58.0876023 C20.9114591,58.3081341 21.1346311,58.499821 21.3266956,58.6616864 C21.4411452,58.7581406 21.519304,58.8228291 21.5585885,58.8547865 C22.6160473,59.7150712 24.3839527,59.7150712 25.4414238,58.8547766 C25.480696,58.8228291 25.5588548,58.7581406 25.6733044,58.6616864 C25.8653689,58.499821 26.0885409,58.3081341 26.3402242,58.0876023 C27.0607634,57.456246 27.8642579,56.7211794 28.7299334,55.8902335 C31.2043346,53.5151015 33.6789994,50.8498946 35.987716,47.9578335 C42.5620652,39.7223405 46.5,31.3304549 46.5,23.3025114 Z"></path>
                </g>
            </g>
            <g id="hotel-with-three-floors" transform="translate(14.687500, 13.170732)" fill="#FFFFFF">
                <path d="M15.5136719,2.34146341 L15.5136719,0 L3.58007812,0 L3.58007812,2.34146341 L0,2.34146341 L0,23.4146341 L7.16015625,23.4146341 L7.16015625,21.0731707 L11.9335938,21.0731707 L11.9335938,23.4146341 L19.09375,23.4146341 L19.09375,2.34146341 L15.5136719,2.34146341 Z M8.35351562,17.5609756 L5.96679687,17.5609756 L5.96679687,15.2195122 L8.35351562,15.2195122 L8.35351562,17.5609756 Z M8.35351562,12.8780488 L5.96679687,12.8780488 L5.96679687,10.5365854 L8.35351562,10.5365854 L8.35351562,12.8780488 Z M8.35351562,8.19512195 L5.96679687,8.19512195 L5.96679687,5.85365854 L8.35351562,5.85365854 L8.35351562,8.19512195 Z M13.1269531,17.5609756 L10.7402344,17.5609756 L10.7402344,15.2195122 L13.1269531,15.2195122 L13.1269531,17.5609756 Z M13.1269531,12.8780488 L10.7402344,12.8780488 L10.7402344,10.5365854 L13.1269531,10.5365854 L13.1269531,12.8780488 Z M13.1269531,8.19512195 L10.7402344,8.19512195 L10.7402344,5.85365854 L13.1269531,5.85365854 L13.1269531,8.19512195 Z" id="Shape"></path>
            </g>
        </g>
    </g>
</svg>