<?xml version="1.0" encoding="UTF-8"?>
<svg width="40px" height="40px" viewBox="0 0 40 40" version="1.1" xmlns="http://www.w3.org/2000/svg" xmlns:xlink="http://www.w3.org/1999/xlink">
    <!-- Generator: Sketch 49 (51002) - http://www.bohemiancoding.com/sketch -->
    <title>share</title>
    <desc>Created with Sketch.</desc>
    <defs></defs>
    <g id="Hotel-layout" stroke="none" stroke-width="1" fill="none" fill-rule="evenodd">
        <g id="Room_Only_Detail_1" transform="translate(-910.000000, -241.000000)">
            <g id="room-detail" transform="translate(0.000000, 211.000000)">
                <g id="img">
                    <g id="share" transform="translate(910.000000, 30.000000)">
                        <rect id="Rectangle-3" fill="#1A2B48" opacity="0.5" x="0" y="0" width="40" height="40" rx="20"></rect>
                        <g id="ico_share" transform="translate(10.000000, 10.000000)" stroke="#FFFFFF" stroke-linecap="round" stroke-linejoin="round">
                            <g id="Group" transform="translate(1.666667, 0.000000)">
                                <g id="share-2" stroke-width="1.5">
                                    <path d="M16.4583333,4.375 L9.58333333,4.375 C8.20262146,4.375 7.08333333,5.49428813 7.08333333,6.875 L7.08333333,10" id="Shape"></path>
                                    <polyline id="Shape" points="12.7083333 8.125 16.4583333 4.375 12.7083333 0.625"></polyline>
                                    <path d="M13.9583333,11.875 L13.9583333,18.125 C13.9583333,18.8153559 13.3986893,19.375 12.7083333,19.375 L1.45833333,19.375 C0.767977396,19.375 0.208333333,18.8153559 0.208333333,18.125 L0.208333333,8.125 C0.208333333,7.43464406 0.767977396,6.875 1.45833333,6.875 L3.33333333,6.875" id="Shape"></path>
                                </g>
                            </g>
                        </g>
                    </g>
                </g>
            </g>
        </g>
    </g>
</svg>