<?xml version="1.0" encoding="UTF-8"?>
<svg width="80px" height="75px" viewBox="0 0 80 75" version="1.1" xmlns="http://www.w3.org/2000/svg" xmlns:xlink="http://www.w3.org/1999/xlink">
    <!-- Generator: Sketch 49 (51002) - http://www.bohemiancoding.com/sketch -->
    <title>ico_email_subscribe</title>
    <desc>Created with Sketch.</desc>
    <defs></defs>
    <g id="Page-1" stroke="none" stroke-width="1" fill="none" fill-rule="evenodd">
        <g id="Blog" transform="translate(-230.000000, -3937.000000)" fill="#A0A9B2" fill-rule="nonzero">
            <g id="subscribe" transform="translate(0.000000, 3857.000000)">
                <g id="ico_email_subscribe" transform="translate(230.000000, 79.900000)">
                    <path d="M76.6250584,44.078758 C73.5685603,43.8037074 70.6764202,42.8724856 68.0972763,41.6735284 L68.0972763,4.84674241 C68.0972763,3.95399844 67.8555642,3.09036887 67.4149416,2.34948794 C67.5847471,2.21210895 66.5554864,1.28995798 66.5715175,1.30429572 C65.7181323,0.516012451 64.6396887,0.131965759 63.6127626,0.146449805 C63.5970428,0.146449805 4.53696498,0.145718288 4.41494163,0.147766537 C1.92466926,0.180392218 0.0278599222,2.34890272 0.0278599222,4.84674241 L0.0278599222,15.3593805 C0.0278599222,15.968442 0.553774319,16.4626553 1.20171206,16.4626553 C1.84964981,16.4626553 2.3755642,15.9682957 2.3755642,15.3593805 C2.4818677,4.62041089 2.13431907,4.59627082 2.69494163,3.53952062 C3.10817121,4.04134163 1.99439689,3.15137743 24.9189105,18.3349012 C25.1242023,18.4703782 25.3595331,18.5354833 25.5926848,18.5354833 C26.7302724,18.5354833 27.2085603,17.1499891 26.2683268,16.5292233 L4.80031128,2.35343813 C12.31393,2.35343813 57.4057588,2.35343813 63.328249,2.35343813 L34.6885603,21.2625805 C34.3201556,21.5058833 33.8056031,21.5060296 33.4368872,21.2625805 L30.1101946,19.0659798 C29.5794553,18.7155829 28.8474708,18.8358444 28.4750195,19.334593 C28.1024125,19.8333416 28.2303502,20.521407 28.7607782,20.8716576 C31.667393,22.633737 32.3319844,23.6550817 34.0624125,23.6550817 C34.7730739,23.6550817 35.4560311,23.4521588 36.0376654,23.0682584 L65.4754864,3.63227704 C65.9961089,4.71638599 65.6498054,3.26578677 65.7497276,40.4716451 C60.5929961,37.5808342 57.1529961,34.0192218 56.9950195,33.853021 C54.6140078,31.2371144 50.9579767,30.217379 47.3120623,30.5295907 C46.7336965,28.2378926 44.539144,26.5268732 41.9270039,26.5268732 C38.8736187,26.5268732 36.3914397,28.8615844 36.3914397,31.7303035 L36.3914397,32.1289805 C32.4281712,33.8947175 29.2596109,37.4706677 29.2549416,41.7045447 C29.248716,41.9163922 29.1125292,46.0414195 27.5677821,50.884358 L4.46941634,50.884358 C3.33478599,50.884358 2.37540856,49.7427518 2.37540856,48.3907611 L2.37540856,19.7729183 C2.37540856,19.1623938 1.84949416,18.6694973 1.20155642,18.6694973 C0.553618677,18.6694973 0.0277042802,19.1623938 0.0277042802,19.7729183 L0.0277042802,48.3907611 C0.0277042802,50.9828202 2.01992218,53.0910537 4.4692607,53.0910537 L26.778677,53.0910537 C25.6127626,56.0112716 23.8974319,59.0138584 21.3792996,61.4588825 C19.3190661,63.459144 20.8354864,66.8122739 23.8051362,66.8122739 L31.7319844,66.8122739 C32.953463,74.4491704 42.8158755,77.7443642 48.8908949,72.5011393 C49.6122957,72.4688062 50.3150195,72.2113121 50.9019455,71.7405074 L56.930428,66.9063471 C60.7526848,70.0419237 66.6197665,70.11727 70.5634241,66.8048125 C71.0470039,66.3988202 71.0877821,65.7013914 70.6557198,65.2468265 C70.2236576,64.7922615 69.4818677,64.75393 68.9982879,65.1600685 C66.7656031,67.0346553 63.7341634,67.5123362 61.0949416,66.6605572 C63.0910506,66.0620296 64.0566537,63.805737 62.9666926,62.0661883 L70.6322179,55.9183689 C71.7614008,57.8037821 71.939144,60.0016996 71.2284825,61.9882086 C71.0203891,62.5664 71.3505058,63.1915549 71.9640467,63.3873089 C72.5710506,63.5798444 73.2424903,63.2771424 73.4524514,62.6944156 C74.4384436,59.9516638 74.0835798,56.9383969 72.4445136,54.4664529 L78.4745525,49.6308296 C80.7249805,47.8288093 79.5869261,44.3476638 76.6250584,44.078758 Z M41.9268482,28.7334226 C43.3847471,28.7334226 44.6136965,29.6586459 44.9909728,30.9164171 C44.7357198,30.9802054 44.4818677,31.0483829 44.2320623,31.1254848 C42.4160311,30.7945463 40.6054475,30.8539455 38.7701167,31.3079253 C38.9892607,29.8545463 40.3195331,28.7334226 41.9268482,28.7334226 Z M48.0944747,70.089765 C43.8266148,75.0040996 35.4070039,72.9868669 34.115642,66.8121276 C35.6896498,66.8121276 48.0722179,66.8121276 49.7361868,66.8121276 C49.4810895,68.0375658 48.9036576,69.1572265 48.0944747,70.089765 Z M51.8130739,68.1111564 C51.9461479,67.6889245 52.0493385,67.2549883 52.1198444,66.8121276 L53.4328405,66.8121276 L51.8130739,68.1111564 Z M60.0466926,64.6055782 C49.3148638,64.6055782 34.4944747,64.6055782 23.8052918,64.6055782 C22.9078599,64.6055782 22.4502724,63.593158 23.0666148,62.9946304 C26.0856031,60.0612451 28.0387549,56.4760778 29.2985214,53.0910537 C31.5203113,47.1524482 31.6004669,41.7319035 31.602179,41.716249 C31.602179,36.2373292 39.5385214,30.5635331 47.0428016,34.4326755 C52.5889494,37.3000778 52.2404669,41.7095191 52.2512062,41.7368778 C52.2893385,43.9247004 52.8149416,47.5334226 53.8130739,50.884358 C54.9929961,54.8143626 56.8496498,58.6609743 59.6600778,61.817765 C60.7727626,63.0748047 61.0426459,63.084607 61.0686381,63.5890615 C61.0957198,64.0788856 60.7067704,64.6055782 60.0466926,64.6055782 Z M76.9520623,47.9522895 C75.1554864,49.3930864 61.5106615,60.3351253 61.4488716,60.3847222 C57.0530739,55.4254724 54.7788327,47.5809712 54.5987549,41.7043984 C54.5925292,37.9003611 52.0379767,34.6056062 48.5656031,32.6805447 C48.6896498,32.7033681 52.6684825,32.4858148 55.216965,35.2946957 C60.1614008,40.485544 68.3971984,45.5580327 76.4012451,46.2752125 C77.290428,46.3565572 77.6298833,47.4074553 76.9520623,47.9522895 Z" id="Shape"></path>
                </g>
            </g>
        </g>
    </g>
</svg>