<?xml version="1.0" encoding="UTF-8"?>
<svg width="24px" height="18px" viewBox="0 0 24 18" version="1.1" xmlns="http://www.w3.org/2000/svg" xmlns:xlink="http://www.w3.org/1999/xlink">
    <!-- Generator: Sketch 49 (51002) - http://www.bohemiancoding.com/sketch -->
    <title>ico_guest_search_box</title>
    <desc>Created with Sketch.</desc>
    <defs></defs>
    <g id="Hotel-layout" stroke="none" stroke-width="1" fill="none" fill-rule="evenodd" stroke-linecap="round" stroke-linejoin="round">
        <g id="01_Home" transform="translate(-735.000000, -470.000000)" stroke="#A0A9B2">
            <g id="slide" transform="translate(0.000000, -1.000000)">
                <g id="form_search_hotel_row" transform="translate(135.000000, 430.000000)">
                    <g id="input" transform="translate(30.000000, 0.000000)">
                        <g id="guest" transform="translate(570.000000, 26.000000)">
                            <g id="ico_guest_search_box" transform="translate(0.000000, 15.000000)">
                                <g id="Light">
                                    <path d="M0.5,17.5000001 C0.500000058,13.6340068 3.63400679,10.5000001 7.5,10.5000001 C11.3659932,10.5000001 14.4999999,13.6340068 14.5,17.5000001 L0.5,17.5000001 Z" id="Shape"></path>
                                    <path d="M13.994,3.558 C15.1539911,4.33669999 16.5198779,4.75172347 17.917,4.75 C18.8777931,4.7508055 19.8286029,4.55513062 20.711,4.175" id="Shape"></path>
                                    <path d="M13.26,2 C14.7525087,0.243845556 17.3729329,-0.0022836544 19.1663535,1.44523253 C20.9597741,2.89274871 21.2722437,5.50609244 19.8706501,7.3356268 C18.4690565,9.16516115 15.8644725,9.54377036 14,8.189 C13.8228021,8.05875218 13.655663,7.9153468 13.5,7.76" id="Shape"></path>
                                    <path d="M14.5,10.79 C16.6186472,10.1605491 18.9100973,10.5678907 20.6820104,11.8889503 C22.4539234,13.21001 23.4984514,15.2898253 23.5,17.5 L17,17.5" id="Shape"></path>
                                    <path d="M3.838,2.592 C5.87773146,4.7056567 9.0128387,5.33602311 11.711,4.175" id="Shape"></path>
                                    <circle id="Oval" cx="7.5" cy="4.75" r="4.25"></circle>
                                </g>
                            </g>
                        </g>
                    </g>
                </g>
            </g>
        </g>
    </g>
</svg>